# Tiled2Unity generated file. Do not modify by hand.
# Wavefront file for 'RotmgMap1_mesh_0002.obj'

# Vertices (Count = 524)
v -122 -12 0
v -124 -12 0
v -124 -10 0
v -122 -10 0
v -130 -12 0
v -132 -12 0
v -132 -10 0
v -130 -10 0
v -172 -14 0
v -174 -14 0
v -174 -12 0
v -172 -12 0
v -126 -16 0
v -128 -16 0
v -128 -14 0
v -126 -14 0
v -154 -26 0
v -156 -26 0
v -156 -24 0
v -154 -24 0
v -138 -28 0
v -140 -28 0
v -140 -26 0
v -138 -26 0
v -134 -30 0
v -136 -30 0
v -136 -28 0
v -134 -28 0
v -136 -30 0
v -138 -30 0
v -138 -28 0
v -136 -28 0
v -138 -30 0
v -140 -30 0
v -140 -28 0
v -138 -28 0
v -140 -30 0
v -142 -30 0
v -142 -28 0
v -140 -28 0
v -136 -32 0
v -138 -32 0
v -138 -30 0
v -136 -30 0
v -138 -32 0
v -140 -32 0
v -140 -30 0
v -138 -30 0
v -140 -32 0
v -142 -32 0
v -142 -30 0
v -140 -30 0
v -142 -32 0
v -144 -32 0
v -144 -30 0
v -142 -30 0
v -42 -34 0
v -44 -34 0
v -44 -32 0
v -42 -32 0
v -138 -34 0
v -140 -34 0
v -140 -32 0
v -138 -32 0
v -140 -34 0
v -142 -34 0
v -142 -32 0
v -140 -32 0
v -142 -34 0
v -144 -34 0
v -144 -32 0
v -142 -32 0
v -140 -36 0
v -142 -36 0
v -142 -34 0
v -140 -34 0
v -112 -40 0
v -114 -40 0
v -114 -38 0
v -112 -38 0
v -148 -40 0
v -150 -40 0
v -150 -38 0
v -148 -38 0
v -58 -42 0
v -60 -42 0
v -60 -40 0
v -58 -40 0
v -146 -42 0
v -148 -42 0
v -148 -40 0
v -146 -40 0
v -148 -42 0
v -150 -42 0
v -150 -40 0
v -148 -40 0
v -150 -42 0
v -152 -42 0
v -152 -40 0
v -150 -40 0
v -152 -42 0
v -154 -42 0
v -154 -40 0
v -152 -40 0
v -76 -44 0
v -78 -44 0
v -78 -42 0
v -76 -42 0
v -148 -44 0
v -150 -44 0
v -150 -42 0
v -148 -42 0
v -150 -44 0
v -152 -44 0
v -152 -42 0
v -150 -42 0
v -152 -44 0
v -154 -44 0
v -154 -42 0
v -152 -42 0
v -154 -44 0
v -156 -44 0
v -156 -42 0
v -154 -42 0
v -150 -46 0
v -152 -46 0
v -152 -44 0
v -150 -44 0
v -152 -46 0
v -154 -46 0
v -154 -44 0
v -152 -44 0
v -154 -46 0
v -156 -46 0
v -156 -44 0
v -154 -44 0
v -96 -48 0
v -98 -48 0
v -98 -46 0
v -96 -46 0
v -182 -48 0
v -184 -48 0
v -184 -46 0
v -182 -46 0
v -178 -50 0
v -180 -50 0
v -180 -48 0
v -178 -48 0
v -180 -50 0
v -182 -50 0
v -182 -48 0
v -180 -48 0
v -182 -50 0
v -184 -50 0
v -184 -48 0
v -182 -48 0
v -184 -50 0
v -186 -50 0
v -186 -48 0
v -184 -48 0
v -186 -50 0
v -188 -50 0
v -188 -48 0
v -186 -48 0
v -178 -52 0
v -180 -52 0
v -180 -50 0
v -178 -50 0
v -186 -52 0
v -188 -52 0
v -188 -50 0
v -186 -50 0
v -74 -54 0
v -76 -54 0
v -76 -52 0
v -74 -52 0
v -174 -54 0
v -176 -54 0
v -176 -52 0
v -174 -52 0
v -178 -54 0
v -180 -54 0
v -180 -52 0
v -178 -52 0
v -186 -54 0
v -188 -54 0
v -188 -52 0
v -186 -52 0
v -178 -56 0
v -180 -56 0
v -180 -54 0
v -178 -54 0
v -182 -56 0
v -184 -56 0
v -184 -54 0
v -182 -54 0
v -186 -56 0
v -188 -56 0
v -188 -54 0
v -186 -54 0
v -36 -58 0
v -38 -58 0
v -38 -56 0
v -36 -56 0
v -104 -58 0
v -106 -58 0
v -106 -56 0
v -104 -56 0
v -122 -58 0
v -124 -58 0
v -124 -56 0
v -122 -56 0
v -178 -58 0
v -180 -58 0
v -180 -56 0
v -178 -56 0
v -180 -58 0
v -182 -58 0
v -182 -56 0
v -180 -56 0
v -182 -58 0
v -184 -58 0
v -184 -56 0
v -182 -56 0
v -184 -58 0
v -186 -58 0
v -186 -56 0
v -184 -56 0
v -186 -58 0
v -188 -58 0
v -188 -56 0
v -186 -56 0
v -180 -60 0
v -182 -60 0
v -182 -58 0
v -180 -58 0
v -138 -62 0
v -140 -62 0
v -140 -60 0
v -138 -60 0
v -48 -64 0
v -50 -64 0
v -50 -62 0
v -48 -62 0
v -176 -66 0
v -178 -66 0
v -178 -64 0
v -176 -64 0
v -62 -70 0
v -64 -70 0
v -64 -68 0
v -62 -68 0
v -78 -70 0
v -80 -70 0
v -80 -68 0
v -78 -68 0
v -102 -72 0
v -104 -72 0
v -104 -70 0
v -102 -70 0
v -110 -72 0
v -112 -72 0
v -112 -70 0
v -110 -70 0
v -102 -74 0
v -104 -74 0
v -104 -72 0
v -102 -72 0
v -110 -74 0
v -112 -74 0
v -112 -72 0
v -110 -72 0
v -102 -76 0
v -104 -76 0
v -104 -74 0
v -102 -74 0
v -110 -76 0
v -112 -76 0
v -112 -74 0
v -110 -74 0
v -76 -80 0
v -78 -80 0
v -78 -78 0
v -76 -78 0
v -138 -80 0
v -140 -80 0
v -140 -78 0
v -138 -78 0
v -94 -82 0
v -96 -82 0
v -96 -80 0
v -94 -80 0
v -120 -90 0
v -122 -90 0
v -122 -88 0
v -120 -88 0
v -148 -90 0
v -150 -90 0
v -150 -88 0
v -148 -88 0
v -108 -98 0
v -110 -98 0
v -110 -96 0
v -108 -96 0
v -134 -98 0
v -136 -98 0
v -136 -96 0
v -134 -96 0
v -44 -102 0
v -46 -102 0
v -46 -100 0
v -44 -100 0
v -56 -106 0
v -58 -106 0
v -58 -104 0
v -56 -104 0
v -90 -106 0
v -92 -106 0
v -92 -104 0
v -90 -104 0
v -134 -106 0
v -136 -106 0
v -136 -104 0
v -134 -104 0
v -152 -108 0
v -154 -108 0
v -154 -106 0
v -152 -106 0
v -124 -110 0
v -126 -110 0
v -126 -108 0
v -124 -108 0
v -98 -112 0
v -100 -112 0
v -100 -110 0
v -98 -110 0
v -28 -116 0
v -30 -116 0
v -30 -114 0
v -28 -114 0
v -72 -116 0
v -74 -116 0
v -74 -114 0
v -72 -114 0
v -90 -118 0
v -92 -118 0
v -92 -116 0
v -90 -116 0
v -116 -118 0
v -118 -118 0
v -118 -116 0
v -116 -116 0
v -134 -120 0
v -136 -120 0
v -136 -118 0
v -134 -118 0
v -44 -122 0
v -46 -122 0
v -46 -120 0
v -44 -120 0
v -52 -122 0
v -54 -122 0
v -54 -120 0
v -52 -120 0
v -148 -122 0
v -150 -122 0
v -150 -120 0
v -148 -120 0
v -44 -124 0
v -46 -124 0
v -46 -122 0
v -44 -122 0
v -52 -124 0
v -54 -124 0
v -54 -122 0
v -52 -122 0
v -32 -126 0
v -34 -126 0
v -34 -124 0
v -32 -124 0
v -98 -126 0
v -100 -126 0
v -100 -124 0
v -98 -124 0
v -44 -128 0
v -46 -128 0
v -46 -126 0
v -44 -126 0
v -52 -128 0
v -54 -128 0
v -54 -126 0
v -52 -126 0
v -44 -132 0
v -46 -132 0
v -46 -130 0
v -44 -130 0
v -52 -132 0
v -54 -132 0
v -54 -130 0
v -52 -130 0
v -30 -134 0
v -32 -134 0
v -32 -132 0
v -30 -132 0
v -134 -134 0
v -136 -134 0
v -136 -132 0
v -134 -132 0
v -66 -138 0
v -68 -138 0
v -68 -136 0
v -66 -136 0
v -160 -138 0
v -162 -138 0
v -162 -136 0
v -160 -136 0
v -88 -140 0
v -90 -140 0
v -90 -138 0
v -88 -138 0
v -108 -142 0
v -110 -142 0
v -110 -140 0
v -108 -140 0
v -146 -142 0
v -148 -142 0
v -148 -140 0
v -146 -140 0
v -26 -144 0
v -28 -144 0
v -28 -142 0
v -26 -142 0
v -36 -144 0
v -38 -144 0
v -38 -142 0
v -36 -142 0
v -78 -144 0
v -80 -144 0
v -80 -142 0
v -78 -142 0
v -156 -144 0
v -158 -144 0
v -158 -142 0
v -156 -142 0
v -26 -146 0
v -28 -146 0
v -28 -144 0
v -26 -144 0
v -36 -146 0
v -38 -146 0
v -38 -144 0
v -36 -144 0
v -26 -148 0
v -28 -148 0
v -28 -146 0
v -26 -146 0
v -36 -148 0
v -38 -148 0
v -38 -146 0
v -36 -146 0
v -44 -148 0
v -46 -148 0
v -46 -146 0
v -44 -146 0
v -58 -148 0
v -60 -148 0
v -60 -146 0
v -58 -146 0
v -44 -150 0
v -46 -150 0
v -46 -148 0
v -44 -148 0
v -58 -150 0
v -60 -150 0
v -60 -148 0
v -58 -148 0
v -58 -152 0
v -60 -152 0
v -60 -150 0
v -58 -150 0
v -134 -152 0
v -136 -152 0
v -136 -150 0
v -134 -150 0
v -86 -158 0
v -88 -158 0
v -88 -156 0
v -86 -156 0
v -66 -160 0
v -68 -160 0
v -68 -158 0
v -66 -158 0
v -130 -164 0
v -132 -164 0
v -132 -162 0
v -130 -162 0
v -74 -166 0
v -76 -166 0
v -76 -164 0
v -74 -164 0
v -86 -166 0
v -88 -166 0
v -88 -164 0
v -86 -164 0
v -94 -168 0
v -96 -168 0
v -96 -166 0
v -94 -166 0
v -180 -178 0
v -182 -178 0
v -182 -176 0
v -180 -176 0
v -178 -184 0
v -180 -184 0
v -180 -182 0
v -178 -182 0
v -154 -188 0
v -156 -188 0
v -156 -186 0
v -154 -186 0
v -164 -190 0
v -166 -190 0
v -166 -188 0
v -164 -188 0

# Texture cooridinates (Count = 22)
vt 0.5625 0.625
vt 0.625 0.625
vt 0.625 0.6875
vt 0.5625 0.6875
vt 0.875 0.6875
vt 0.9375 0.6875
vt 0.9375 0.75
vt 0.875 0.75
vt 0.5625 0.5625
vt 0.625 0.5625
vt 0.625 0.75
vt 0.5625 0.75
vt 0.875 0.1875
vt 0.9375 0.1875
vt 0.9375 0.25
vt 0.875 0.25
vt 0.6875 0.625
vt 0.6875 0.6875
vt 0.25 0.125
vt 0.3125 0.125
vt 0.3125 0.1875
vt 0.25 0.1875

# Normal
vn 0 0 -1

# Mesh description
g RotmgMap1_mesh_0002

# Faces
f 1/1/1 2/2/1 3/3/1 4/4/1
f 5/1/1 6/2/1 7/3/1 8/4/1
f 9/5/1 10/6/1 11/7/1 12/8/1
f 13/9/1 14/10/1 15/2/1 16/1/1
f 17/5/1 18/6/1 19/7/1 20/8/1
f 21/4/1 22/3/1 23/11/1 24/12/1
f 25/4/1 26/3/1 27/11/1 28/12/1
f 29/1/1 30/2/1 31/3/1 32/4/1
f 33/1/1 34/2/1 35/3/1 36/4/1
f 37/4/1 38/3/1 39/11/1 40/12/1
f 41/4/1 42/3/1 43/11/1 44/12/1
f 45/4/1 46/3/1 47/11/1 48/12/1
f 49/1/1 50/2/1 51/3/1 52/4/1
f 53/4/1 54/3/1 55/11/1 56/12/1
f 57/1/1 58/2/1 59/3/1 60/4/1
f 61/4/1 62/3/1 63/11/1 64/12/1
f 65/1/1 66/2/1 67/3/1 68/4/1
f 69/4/1 70/3/1 71/11/1 72/12/1
f 73/4/1 74/3/1 75/11/1 76/12/1
f 77/5/1 78/6/1 79/7/1 80/8/1
f 81/4/1 82/3/1 83/11/1 84/12/1
f 85/5/1 86/6/1 87/7/1 88/8/1
f 89/4/1 90/3/1 91/11/1 92/12/1
f 93/1/1 94/2/1 95/3/1 96/4/1
f 97/4/1 98/3/1 99/11/1 100/12/1
f 101/4/1 102/3/1 103/11/1 104/12/1
f 105/1/1 106/2/1 107/3/1 108/4/1
f 109/4/1 110/3/1 111/11/1 112/12/1
f 113/1/1 114/2/1 115/3/1 116/4/1
f 117/1/1 118/2/1 119/3/1 120/4/1
f 121/4/1 122/3/1 123/11/1 124/12/1
f 125/4/1 126/3/1 127/11/1 128/12/1
f 129/4/1 130/3/1 131/11/1 132/12/1
f 133/1/1 134/2/1 135/3/1 136/4/1
f 137/5/1 138/6/1 139/7/1 140/8/1
f 141/1/1 142/2/1 143/3/1 144/4/1
f 145/13/1 146/14/1 147/15/1 148/16/1
f 149/13/1 150/14/1 151/15/1 152/16/1
f 153/13/1 154/14/1 155/15/1 156/16/1
f 157/13/1 158/14/1 159/15/1 160/16/1
f 161/13/1 162/14/1 163/15/1 164/16/1
f 165/13/1 166/14/1 167/15/1 168/16/1
f 169/13/1 170/14/1 171/15/1 172/16/1
f 173/2/1 174/17/1 175/18/1 176/3/1
f 177/1/1 178/2/1 179/3/1 180/4/1
f 181/13/1 182/14/1 183/15/1 184/16/1
f 185/13/1 186/14/1 187/15/1 188/16/1
f 189/13/1 190/14/1 191/15/1 192/16/1
f 193/19/1 194/20/1 195/21/1 196/22/1
f 197/13/1 198/14/1 199/15/1 200/16/1
f 201/5/1 202/6/1 203/7/1 204/8/1
f 205/5/1 206/6/1 207/7/1 208/8/1
f 209/5/1 210/6/1 211/7/1 212/8/1
f 213/13/1 214/14/1 215/15/1 216/16/1
f 217/13/1 218/14/1 219/15/1 220/16/1
f 221/13/1 222/14/1 223/15/1 224/16/1
f 225/13/1 226/14/1 227/15/1 228/16/1
f 229/13/1 230/14/1 231/15/1 232/16/1
f 233/5/1 234/6/1 235/7/1 236/8/1
f 237/1/1 238/2/1 239/3/1 240/4/1
f 241/1/1 242/2/1 243/3/1 244/4/1
f 245/1/1 246/2/1 247/3/1 248/4/1
f 249/2/1 250/17/1 251/18/1 252/3/1
f 253/5/1 254/6/1 255/7/1 256/8/1
f 257/4/1 258/3/1 259/11/1 260/12/1
f 261/4/1 262/3/1 263/11/1 264/12/1
f 265/2/1 266/17/1 267/18/1 268/3/1
f 269/2/1 270/17/1 271/18/1 272/3/1
f 273/4/1 274/3/1 275/11/1 276/12/1
f 277/4/1 278/3/1 279/11/1 280/12/1
f 281/2/1 282/17/1 283/18/1 284/3/1
f 285/5/1 286/6/1 287/7/1 288/8/1
f 289/1/1 290/2/1 291/3/1 292/4/1
f 293/5/1 294/6/1 295/7/1 296/8/1
f 297/2/1 298/17/1 299/18/1 300/3/1
f 301/2/1 302/17/1 303/18/1 304/3/1
f 305/1/1 306/2/1 307/3/1 308/4/1
f 309/5/1 310/6/1 311/7/1 312/8/1
f 313/2/1 314/17/1 315/18/1 316/3/1
f 317/1/1 318/2/1 319/3/1 320/4/1
f 321/1/1 322/2/1 323/3/1 324/4/1
f 325/5/1 326/6/1 327/7/1 328/8/1
f 329/5/1 330/6/1 331/7/1 332/8/1
f 333/1/1 334/2/1 335/3/1 336/4/1
f 337/5/1 338/6/1 339/7/1 340/8/1
f 341/1/1 342/2/1 343/3/1 344/4/1
f 345/1/1 346/2/1 347/3/1 348/4/1
f 349/1/1 350/2/1 351/3/1 352/4/1
f 353/5/1 354/6/1 355/7/1 356/8/1
f 357/1/1 358/2/1 359/3/1 360/4/1
f 361/1/1 362/2/1 363/3/1 364/4/1
f 365/1/1 366/2/1 367/3/1 368/4/1
f 369/4/1 370/3/1 371/11/1 372/12/1
f 373/4/1 374/3/1 375/11/1 376/12/1
f 377/2/1 378/17/1 379/18/1 380/3/1
f 381/1/1 382/2/1 383/3/1 384/4/1
f 385/4/1 386/3/1 387/11/1 388/12/1
f 389/4/1 390/3/1 391/11/1 392/12/1
f 393/4/1 394/3/1 395/11/1 396/12/1
f 397/4/1 398/3/1 399/11/1 400/12/1
f 401/5/1 402/6/1 403/7/1 404/8/1
f 405/5/1 406/6/1 407/7/1 408/8/1
f 409/5/1 410/6/1 411/7/1 412/8/1
f 413/5/1 414/6/1 415/7/1 416/8/1
f 417/5/1 418/6/1 419/7/1 420/8/1
f 421/1/1 422/2/1 423/3/1 424/4/1
f 425/2/1 426/17/1 427/18/1 428/3/1
f 429/1/1 430/2/1 431/3/1 432/4/1
f 433/1/1 434/2/1 435/3/1 436/4/1
f 437/2/1 438/17/1 439/18/1 440/3/1
f 441/1/1 442/2/1 443/3/1 444/4/1
f 445/1/1 446/2/1 447/3/1 448/4/1
f 449/1/1 450/2/1 451/3/1 452/4/1
f 453/1/1 454/2/1 455/3/1 456/4/1
f 457/1/1 458/2/1 459/3/1 460/4/1
f 461/1/1 462/2/1 463/3/1 464/4/1
f 465/1/1 466/2/1 467/3/1 468/4/1
f 469/1/1 470/2/1 471/3/1 472/4/1
f 473/1/1 474/2/1 475/3/1 476/4/1
f 477/1/1 478/2/1 479/3/1 480/4/1
f 481/5/1 482/6/1 483/7/1 484/8/1
f 485/1/1 486/2/1 487/3/1 488/4/1
f 489/5/1 490/6/1 491/7/1 492/8/1
f 493/2/1 494/17/1 495/18/1 496/3/1
f 497/2/1 498/17/1 499/18/1 500/3/1
f 501/5/1 502/6/1 503/7/1 504/8/1
f 505/2/1 506/17/1 507/18/1 508/3/1
f 509/5/1 510/6/1 511/7/1 512/8/1
f 513/1/1 514/2/1 515/3/1 516/4/1
f 517/1/1 518/2/1 519/3/1 520/4/1
f 521/5/1 522/6/1 523/7/1 524/8/1

